name Walk4.mot
datacolumns 19
datarows 30
range 1.62300000 1.65200000
endheader

                time	   L_ground_force_vx	   L_ground_force_vy	   L_ground_force_vz	   L_ground_force_px	   L_ground_force_py	   L_ground_force_pz	   R_ground_force_vx	   R_ground_force_vy	   R_ground_force_vz	   R_ground_force_px	   R_ground_force_py	   R_ground_force_pz	   L_ground_torque_x	   L_ground_torque_y	   L_ground_torque_z	   R_ground_torque_x	   R_ground_torque_y	   R_ground_torque_z	
          1.62300000	         24.04203818	        930.59909126	         83.21794136	         -0.22322185	          0.00000000	         -0.08382534	          0.00000000	          0.00000000	          0.00000000	          0.00000000	          0.00000000	          0.00000000	          0.00000000	         -1.56845678	          0.00000000	          0.00000000	          0.00000000	          0.00000000	
          1.62400000	         24.39279964	        932.68452699	         83.47251398	         -0.22297622	          0.00000000	         -0.08382240	          0.00000000	          0.00000000	          0.00000000	          0.00000000	          0.00000000	          0.00000000	          0.00000000	         -1.56454691	          0.00000000	          0.00000000	          0.00000000	          0.00000000	
          1.62500000	         24.78545089	        934.76735935	         83.74879386	         -0.22273253	          0.00000000	         -0.08381604	          0.00000000	          0.00000000	          0.00000000	          0.00000000	          0.00000000	          0.00000000	          0.00000000	         -1.57763265	          0.00000000	          0.00000000	          0.00000000	          0.00000000	
          1.62600000	         25.25998040	        936.88219156	         84.03115195	         -0.22247093	          0.00000000	         -0.08382595	          0.00000000	          0.00000000	          0.00000000	          0.00000000	          0.00000000	          0.00000000	          0.00000000	         -1.60979659	          0.00000000	          0.00000000	          0.00000000	          0.00000000	
          1.62700000	         25.83395931	        939.05058508	         84.28454753	         -0.22217624	          0.00000000	         -0.08386565	          0.00000000	          0.00000000	          0.00000000	          0.00000000	          0.00000000	          0.00000000	          0.00000000	         -1.65037528	          0.00000000	          0.00000000	          0.00000000	          0.00000000	
          1.62800000	         26.48258485	        941.25912405	         84.47823732	         -0.22185592	          0.00000000	         -0.08394321	          0.00000000	          0.00000000	          0.00000000	          0.00000000	          0.00000000	          0.00000000	          0.00000000	         -1.68433407	          0.00000000	          0.00000000	          0.00000000	          0.00000000	
          1.62900000	         27.15388321	        943.47294817	         84.60883132	         -0.22153197	          0.00000000	         -0.08406192	          0.00000000	          0.00000000	          0.00000000	          0.00000000	          0.00000000	          0.00000000	          0.00000000	         -1.70199272	          0.00000000	          0.00000000	          0.00000000	          0.00000000	
          1.63000000	         27.79671789	        945.66065350	         84.70051883	         -0.22122284	          0.00000000	         -0.08422532	          0.00000000	          0.00000000	          0.00000000	          0.00000000	          0.00000000	          0.00000000	          0.00000000	         -1.70000980	          0.00000000	          0.00000000	          0.00000000	          0.00000000	
          1.63100000	         28.38381873	        947.79791230	         84.79470429	         -0.22093937	          0.00000000	         -0.08442629	          0.00000000	          0.00000000	          0.00000000	          0.00000000	          0.00000000	          0.00000000	          0.00000000	         -1.68307851	          0.00000000	          0.00000000	          0.00000000	          0.00000000	
          1.63200000	         28.92820589	        949.87594791	         84.92884035	         -0.22068558	          0.00000000	         -0.08463419	          0.00000000	          0.00000000	          0.00000000	          0.00000000	          0.00000000	          0.00000000	          0.00000000	         -1.66633161	          0.00000000	          0.00000000	          0.00000000	          0.00000000	
          1.63300000	         29.47279549	        951.90010697	         85.10844121	         -0.22045473	          0.00000000	         -0.08481721	          0.00000000	          0.00000000	          0.00000000	          0.00000000	          0.00000000	          0.00000000	          0.00000000	         -1.66618853	          0.00000000	          0.00000000	          0.00000000	          0.00000000	
          1.63400000	         30.05316742	        953.85667179	         85.30985081	         -0.22022968	          0.00000000	         -0.08496118	          0.00000000	          0.00000000	          0.00000000	          0.00000000	          0.00000000	          0.00000000	          0.00000000	         -1.68784342	          0.00000000	          0.00000000	          0.00000000	          0.00000000	
          1.63500000	         30.68497220	        955.72920068	         85.51793145	         -0.21999527	          0.00000000	         -0.08505026	          0.00000000	          0.00000000	          0.00000000	          0.00000000	          0.00000000	          0.00000000	          0.00000000	         -1.72791862	          0.00000000	          0.00000000	          0.00000000	          0.00000000	
          1.63600000	         31.38486622	        957.55143055	         85.73538354	         -0.21974845	          0.00000000	         -0.08506830	          0.00000000	          0.00000000	          0.00000000	          0.00000000	          0.00000000	          0.00000000	          0.00000000	         -1.78305476	          0.00000000	          0.00000000	          0.00000000	          0.00000000	
          1.63700000	         32.16732669	        959.39213996	         85.94760348	         -0.21949163	          0.00000000	         -0.08503416	          0.00000000	          0.00000000	          0.00000000	          0.00000000	          0.00000000	          0.00000000	          0.00000000	         -1.84588881	          0.00000000	          0.00000000	          0.00000000	          0.00000000	
          1.63800000	         33.00879594	        961.30918944	         86.11970779	         -0.21922717	          0.00000000	         -0.08500231	          0.00000000	          0.00000000	          0.00000000	          0.00000000	          0.00000000	          0.00000000	          0.00000000	         -1.89970528	          0.00000000	          0.00000000	          0.00000000	          0.00000000	
          1.63900000	         33.84776666	        963.32741213	         86.24156859	         -0.21896315	          0.00000000	         -0.08501662	          0.00000000	          0.00000000	          0.00000000	          0.00000000	          0.00000000	          0.00000000	          0.00000000	         -1.92919962	          0.00000000	          0.00000000	          0.00000000	          0.00000000	
          1.64000000	         34.63764933	        965.42599999	         86.34365361	         -0.21871091	          0.00000000	         -0.08507608	          0.00000000	          0.00000000	          0.00000000	          0.00000000	          0.00000000	          0.00000000	          0.00000000	         -1.93394557	          0.00000000	          0.00000000	          0.00000000	          0.00000000	
          1.64100000	         35.38108402	        967.55390180	         86.46342877	         -0.21847226	          0.00000000	         -0.08514840	          0.00000000	          0.00000000	          0.00000000	          0.00000000	          0.00000000	          0.00000000	          0.00000000	         -1.92599818	          0.00000000	          0.00000000	          0.00000000	          0.00000000	
          1.64200000	         36.11371272	        969.67728704	         86.61597744	         -0.21824007	          0.00000000	         -0.08520705	          0.00000000	          0.00000000	          0.00000000	          0.00000000	          0.00000000	          0.00000000	          0.00000000	         -1.92011591	          0.00000000	          0.00000000	          0.00000000	          0.00000000	
          1.64300000	         36.87691247	        971.80637717	         86.79442122	         -0.21801173	          0.00000000	         -0.08524651	          0.00000000	          0.00000000	          0.00000000	          0.00000000	          0.00000000	          0.00000000	          0.00000000	         -1.92881268	          0.00000000	          0.00000000	          0.00000000	          0.00000000	
          1.64400000	         37.69918226	        973.95818635	         86.98084951	         -0.21779114	          0.00000000	         -0.08527595	          0.00000000	          0.00000000	          0.00000000	          0.00000000	          0.00000000	          0.00000000	          0.00000000	         -1.95649419	          0.00000000	          0.00000000	          0.00000000	          0.00000000	
          1.64500000	         38.58188755	        976.11591451	         87.16083126	         -0.21758077	          0.00000000	         -0.08531163	          0.00000000	          0.00000000	          0.00000000	          0.00000000	          0.00000000	          0.00000000	          0.00000000	         -1.99460884	          0.00000000	          0.00000000	          0.00000000	          0.00000000	
          1.64600000	         39.51052761	        978.26487568	         87.34024815	         -0.21738014	          0.00000000	         -0.08535799	          0.00000000	          0.00000000	          0.00000000	          0.00000000	          0.00000000	          0.00000000	          0.00000000	         -2.03157390	          0.00000000	          0.00000000	          0.00000000	          0.00000000	
          1.64700000	         40.48530449	        980.43939551	         87.53456192	         -0.21718269	          0.00000000	         -0.08539154	          0.00000000	          0.00000000	          0.00000000	          0.00000000	          0.00000000	          0.00000000	          0.00000000	         -2.06479076	          0.00000000	          0.00000000	          0.00000000	          0.00000000	
          1.64800000	         41.51599984	        982.68762951	         87.73446230	         -0.21697283	          0.00000000	         -0.08538567	          0.00000000	          0.00000000	          0.00000000	          0.00000000	          0.00000000	          0.00000000	          0.00000000	         -2.09363549	          0.00000000	          0.00000000	          0.00000000	          0.00000000	
          1.64900000	         42.58746923	        985.00538263	         87.90560841	         -0.21674010	          0.00000000	         -0.08534490	          0.00000000	          0.00000000	          0.00000000	          0.00000000	          0.00000000	          0.00000000	          0.00000000	         -2.11089282	          0.00000000	          0.00000000	          0.00000000	          0.00000000	
          1.65000000	         43.66326136	        987.34694889	         88.02951017	         -0.21649204	          0.00000000	         -0.08529994	          0.00000000	          0.00000000	          0.00000000	          0.00000000	          0.00000000	          0.00000000	          0.00000000	         -2.11211590	          0.00000000	          0.00000000	          0.00000000	          0.00000000	
          1.65100000	         44.72608696	        989.68922539	         88.12117186	         -0.21624332	          0.00000000	         -0.08528218	          0.00000000	          0.00000000	          0.00000000	          0.00000000	          0.00000000	          0.00000000	          0.00000000	         -2.10417976	          0.00000000	          0.00000000	          0.00000000	          0.00000000	
          1.65200000	         45.79452785	        992.03734586	         88.20008645	         -0.21600134	          0.00000000	         -0.08530693	          0.00000000	          0.00000000	          0.00000000	          0.00000000	          0.00000000	          0.00000000	          0.00000000	         -2.09646352	          0.00000000	          0.00000000	          0.00000000	          0.00000000	
